<svg width="80" height="80" viewBox="0 0 80 80" fill="none" xmlns="http://www.w3.org/2000/svg">
<rect width="80" height="80" rx="40" fill="url(#paint0_linear_1965_8448)"/>
<path fill-rule="evenodd" clip-rule="evenodd" d="M17.1013 52.9723L13.334 66.6667L27.4117 62.9923C31.3051 65.1032 35.6678 66.2092 40.1011 66.2095H40.1126C54.7476 66.2095 66.6611 54.352 66.6673 39.7812C66.6702 32.7678 63.8737 26.0407 58.8933 21.0805C53.9129 16.1202 47.1568 13.3334 40.1121 13.3334C25.4742 13.3334 13.5628 25.1883 13.5569 39.7599C13.5512 44.3976 14.7738 48.9549 17.1013 52.9723ZM28.8702 58.6833L28.0638 58.2075L19.7103 60.3879L21.9403 52.2824L21.4148 51.4514C19.2044 47.9499 18.0347 43.8971 18.0408 39.7616C18.0457 27.6503 27.9463 17.7972 40.1208 17.7972C52.3106 17.8021 62.1883 27.6436 62.1835 39.779C62.1785 51.8912 52.2774 61.7456 40.1126 61.7456H40.1039C36.1513 61.7459 32.2713 60.6883 28.8702 58.6833Z" fill="url(#paint1_linear_1965_8448)"/>
<path fill-rule="evenodd" clip-rule="evenodd" d="M33.4762 28.7122C32.9796 27.6122 32.4558 27.5901 31.9831 27.5714C31.5963 27.5549 31.1536 27.5559 30.7115 27.5559C30.0316 27.5736 29.3901 27.8732 28.9417 28.3824C28.3335 29.0434 26.6191 30.6413 26.6191 33.8911C26.6191 37.141 28.997 40.2817 29.3285 40.7232C29.6601 41.1647 33.9188 48.0459 40.6629 50.6937C46.2677 52.894 47.4082 52.4563 48.6249 52.3463C49.8416 52.2363 52.5504 50.7492 53.1035 49.2062C53.6566 47.6632 53.6564 46.3416 53.4905 46.0657C53.3246 45.7899 52.8822 45.6254 52.2186 45.2951C51.555 44.9648 48.2931 43.3665 47.6848 43.1462C47.0764 42.9259 46.6341 42.8159 46.1917 43.4773C45.7492 44.1387 44.4784 45.6254 44.0909 46.0657C43.7033 46.5061 43.3166 46.5622 42.653 46.2319C41.9894 45.9016 39.852 45.2038 37.3174 42.9535C35.3449 41.2028 34.0132 39.0406 33.6262 38.3794C33.2391 37.7181 33.5847 37.3609 33.9175 37.0316C34.2154 36.7357 34.5811 36.2605 34.9129 35.8748C35.2447 35.4891 35.3546 35.2138 35.5758 34.7733C35.7971 34.3328 35.6864 33.9465 35.5205 33.6162C35.3546 33.2859 34.0661 30.0184 33.4762 28.7122Z" fill="white"/>
<defs>
<linearGradient id="paint0_linear_1965_8448" x1="80" y1="80" x2="80" y2="0" gradientUnits="userSpaceOnUse">
<stop stop-color="#20B038"/>
<stop offset="1" stop-color="#60D66A"/>
</linearGradient>
<linearGradient id="paint1_linear_1965_8448" x1="66.6673" y1="66.6667" x2="66.6673" y2="13.3334" gradientUnits="userSpaceOnUse">
<stop stop-color="#F9F9F9"/>
<stop offset="1" stop-color="white"/>
</linearGradient>
</defs>
</svg>
